# xmcd
#
# Track frame offsets:
#	150
#	22612
#	45056
#	70018
#	90439
#	111756
#
# Disc length: 1788 seconds
#
# Revision: 0
# Processed by: cddbd v1.4PL0 Copyright (c) Steve Scherf et al.
# Submitted via: dBpowerAMP V4.0
#
DISCID=3106fa06
DTITLE=Vandemataram - Jayam Manadera
DYEAR=1900
DGENRE=Blues
TTITLE0=Don't Miss
TTITLE1=Hindusthan Lo
TTITLE2=Meriseti Jabili
TTITLE3=Happy Gaa Jolly Gaa
TTITLE4=Pelliki Baja
TTITLE5=O Chupuke
EXTD=
EXTT0=
EXTT1=
EXTT2=
EXTT3=
EXTT4=
EXTT5=
PLAYORDER=
